<?xml version="1.0" encoding="UTF-8"?>
<svg width="1920px" height="1080px" viewBox="0 0 1920 1080" version="1.1" xmlns="http://www.w3.org/2000/svg" xmlns:xlink="http://www.w3.org/1999/xlink">
    <title>背景</title>
    <defs>
        <rect id="path-1" x="0" y="0" width="1920" height="1080"></rect>
        <radialGradient cx="47.7432512%" cy="42.6655408%" fx="47.7432512%" fy="42.6655408%" r="84.6769253%" gradientTransform="translate(0.477433,0.426655),scale(0.562500,1.000000),rotate(90.000000),translate(-0.477433,-0.426655)" id="radialGradient-3">
            <stop stop-color="#FE615A" stop-opacity="0.349759615" offset="0%"></stop>
            <stop stop-color="#201E35" stop-opacity="0" offset="100%"></stop>
        </radialGradient>
        <linearGradient x1="50%" y1="67.2942182%" x2="0%" y2="32.7057818%" id="linearGradient-4">
            <stop stop-color="#FFFFFF" stop-opacity="0" offset="0%"></stop>
            <stop stop-color="#FE615A" stop-opacity="0.2" offset="100%"></stop>
        </linearGradient>
        <linearGradient x1="-25%" y1="53.7963036%" x2="75%" y2="46.2036964%" id="linearGradient-5">
            <stop stop-color="#FFFFFF" stop-opacity="0" offset="0%"></stop>
            <stop stop-color="#FE615A" stop-opacity="0.2" offset="100%"></stop>
        </linearGradient>
    </defs>
    <g id="页面-1" stroke="none" stroke-width="1" fill="none" fill-rule="evenodd">
        <g id="背景">
            <mask id="mask-2" fill="white">
                <use xlink:href="#path-1"></use>
            </mask>
            <use id="蒙版" fill="#121122" xlink:href="#path-1"></use>
            <g id="编组-15" mask="url(#mask-2)">
                <rect id="矩形" fill="url(#radialGradient-3)" opacity="0.35" x="2" y="0" width="1920" height="1080"></rect>
                <g id="编组" opacity="0.1" stroke="#FE5E60" stroke-width="0.5">
                    <line x1="0" y1="35.5" x2="1920" y2="35.5" id="路径-3"></line>
                    <line x1="0" y1="94.8746135" x2="1920" y2="94.8746135" id="路径-3"></line>
                    <line x1="0" y1="154.249227" x2="1920" y2="154.249227" id="路径-3备份"></line>
                    <line x1="0" y1="213.623841" x2="1920" y2="213.623841" id="路径-3备份-2"></line>
                    <line x1="0" y1="272.998454" x2="1920" y2="272.998454" id="路径-3备份-3"></line>
                    <line x1="0" y1="332.373068" x2="1920" y2="332.373068" id="路径-3备份-4"></line>
                    <line x1="0" y1="391.747681" x2="1920" y2="391.747681" id="路径-3备份-5"></line>
                    <line x1="0" y1="451.122295" x2="1920" y2="451.122295" id="路径-3备份-6"></line>
                    <line x1="0" y1="510.496908" x2="1920" y2="510.496908" id="路径-3备份-7"></line>
                    <line x1="0" y1="569.871522" x2="1920" y2="569.871522" id="路径-3备份-8"></line>
                    <line x1="0" y1="629.246135" x2="1920" y2="629.246135" id="路径-3备份-9"></line>
                    <line x1="0" y1="688.620749" x2="1920" y2="688.620749" id="路径-3备份-10"></line>
                    <line x1="0" y1="747.995363" x2="1920" y2="747.995363" id="路径-3备份-11"></line>
                    <line x1="0" y1="807.369976" x2="1920" y2="807.369976" id="路径-3备份-12"></line>
                    <line x1="0" y1="866.74459" x2="1920" y2="866.74459" id="路径-3备份-13"></line>
                    <line x1="0" y1="926.119203" x2="1920" y2="926.119203" id="路径-3备份-14"></line>
                    <line x1="0" y1="985.493817" x2="1920" y2="985.493817" id="路径-3备份-15"></line>
                    <line x1="0" y1="1044.86843" x2="1920" y2="1044.86843" id="路径-3备份-16"></line>
                    <line x1="28" y1="0" x2="28" y2="1080" id="路径-6"></line>
                    <line x1="88" y1="0" x2="88" y2="1080" id="路径-6备份"></line>
                    <line x1="148.5" y1="0" x2="148.5" y2="1080" id="路径-6备份-2"></line>
                    <line x1="208.5" y1="0" x2="208.5" y2="1080" id="路径-6备份-3"></line>
                    <line x1="268.5" y1="0" x2="268.5" y2="1080" id="路径-6备份-4"></line>
                    <line x1="328.5" y1="0" x2="328.5" y2="1080" id="路径-6备份-5"></line>
                    <line x1="389" y1="0" x2="389" y2="1080" id="路径-6备份-6"></line>
                    <line x1="449" y1="0" x2="449" y2="1080" id="路径-6备份-7"></line>
                    <line x1="509.5" y1="0" x2="509.5" y2="1080" id="路径-6备份-8"></line>
                    <line x1="569.5" y1="0" x2="569.5" y2="1080" id="路径-6备份-9"></line>
                    <line x1="630" y1="0" x2="630" y2="1080" id="路径-6备份-10"></line>
                    <line x1="690" y1="0" x2="690" y2="1080" id="路径-6备份-11"></line>
                    <line x1="750.5" y1="0" x2="750.5" y2="1080" id="路径-6备份-12"></line>
                    <line x1="810.5" y1="0" x2="810.5" y2="1080" id="路径-6备份-13"></line>
                    <line x1="871" y1="0" x2="871" y2="1080" id="路径-6备份-14"></line>
                    <line x1="931" y1="0" x2="931" y2="1080" id="路径-6备份-15"></line>
                    <line x1="991.5" y1="0" x2="991.5" y2="1080" id="路径-6备份-16"></line>
                    <line x1="1051.5" y1="0" x2="1051.5" y2="1080" id="路径-6备份-17"></line>
                    <line x1="1112" y1="0" x2="1112" y2="1080" id="路径-6备份-18"></line>
                    <line x1="1172" y1="0" x2="1172" y2="1080" id="路径-6备份-19"></line>
                    <line x1="1232.5" y1="0" x2="1232.5" y2="1080" id="路径-6备份-20"></line>
                    <line x1="1292.5" y1="0" x2="1292.5" y2="1080" id="路径-6备份-21"></line>
                    <line x1="1353" y1="0" x2="1353" y2="1080" id="路径-6备份-22"></line>
                    <line x1="1413" y1="0" x2="1413" y2="1080" id="路径-6备份-23"></line>
                    <line x1="1473.5" y1="0" x2="1473.5" y2="1080" id="路径-6备份-24"></line>
                    <line x1="1533.5" y1="0" x2="1533.5" y2="1080" id="路径-6备份-25"></line>
                    <line x1="1594" y1="0" x2="1594" y2="1080" id="路径-6备份-26"></line>
                    <line x1="1654" y1="0" x2="1654" y2="1080" id="路径-6备份-27"></line>
                    <line x1="1714.5" y1="0" x2="1714.5" y2="1080" id="路径-6备份-28"></line>
                    <line x1="1774.5" y1="0" x2="1774.5" y2="1080" id="路径-6备份-29"></line>
                    <line x1="1835" y1="0" x2="1835" y2="1080" id="路径-6备份-30"></line>
                    <line x1="1895" y1="0" x2="1895" y2="1080" id="路径-6备份-31"></line>
                </g>
                <path d="M89,1044 L89,1046 L87,1046 L87,1044 L89,1044 Z M269.5,1044 L269.5,1046 L267.5,1046 L267.5,1044 L269.5,1044 Z M450,1044 L450,1046 L448,1046 L448,1044 L450,1044 Z M751.5,1044 L751.5,1046 L749.5,1046 L749.5,1044 L751.5,1044 Z M631,1044 L631,1046 L629,1046 L629,1044 L631,1044 Z M932,1044 L932,1046 L930,1046 L930,1044 L932,1044 Z M1113,1044 L1113,1046 L1111,1046 L1111,1044 L1113,1044 Z M1474.5,1044 L1474.5,1046 L1472.5,1046 L1472.5,1044 L1474.5,1044 Z M1354,1044 L1354,1046 L1352,1046 L1352,1044 L1354,1044 Z M1715.5,1044 L1715.5,1046 L1713.5,1046 L1713.5,1044 L1715.5,1044 Z M1836,1044 L1836,1046 L1834,1046 L1834,1044 L1836,1044 Z M29,1044 L29,1046 L27,1046 L27,1044 L29,1044 Z M209.5,1044 L209.5,1046 L207.5,1046 L207.5,1044 L209.5,1044 Z M390,1044 L390,1046 L388,1046 L388,1044 L390,1044 Z M570.5,1044 L570.5,1046 L568.5,1046 L568.5,1044 L570.5,1044 Z M872,1044 L872,1046 L870,1046 L870,1044 L872,1044 Z M1052.5,1044 L1052.5,1046 L1050.5,1046 L1050.5,1044 L1052.5,1044 Z M1293.5,1044 L1293.5,1046 L1291.5,1046 L1291.5,1044 L1293.5,1044 Z M1655,1044 L1655,1046 L1653,1046 L1653,1044 L1655,1044 Z M149.5,1044 L149.5,1046 L147.5,1046 L147.5,1044 L149.5,1044 Z M329.5,1044 L329.5,1046 L327.5,1046 L327.5,1044 L329.5,1044 Z M510.5,1044 L510.5,1046 L508.5,1046 L508.5,1044 L510.5,1044 Z M811.5,1044 L811.5,1046 L809.5,1046 L809.5,1044 L811.5,1044 Z M691,1044 L691,1046 L689,1046 L689,1044 L691,1044 Z M992.5,1044 L992.5,1046 L990.5,1046 L990.5,1044 L992.5,1044 Z M1233.5,1044 L1233.5,1046 L1231.5,1046 L1231.5,1044 L1233.5,1044 Z M1595,1044 L1595,1046 L1593,1046 L1593,1044 L1595,1044 Z M1173,1044 L1173,1046 L1171,1046 L1171,1044 L1173,1044 Z M1534.5,1044 L1534.5,1046 L1532.5,1046 L1532.5,1044 L1534.5,1044 Z M1414,1044 L1414,1046 L1412,1046 L1412,1044 L1414,1044 Z M1775.5,1044 L1775.5,1046 L1773.5,1046 L1773.5,1044 L1775.5,1044 Z M1896,1044 L1896,1046 L1894,1046 L1894,1044 L1896,1044 Z M1052.5,984 L1052.5,986 L1050.5,986 L1050.5,984 L1052.5,984 Z M1354,984 L1354,986 L1352,986 L1352,984 L1354,984 Z M1293.5,984 L1293.5,986 L1291.5,986 L1291.5,984 L1293.5,984 Z M631,984 L631,986 L629,986 L629,984 L631,984 Z M1655,984 L1655,986 L1653,986 L1653,984 L1655,984 Z M1715.5,984 L1715.5,986 L1713.5,986 L1713.5,984 L1715.5,984 Z M149.5,984 L149.5,986 L147.5,986 L147.5,984 L149.5,984 Z M450,984 L450,986 L448,986 L448,984 L450,984 Z M329.5,984 L329.5,986 L327.5,986 L327.5,984 L329.5,984 Z M1836,984 L1836,986 L1834,986 L1834,984 L1836,984 Z M510.5,984 L510.5,986 L508.5,986 L508.5,984 L510.5,984 Z M932,984 L932,986 L930,986 L930,984 L932,984 Z M811.5,984 L811.5,986 L809.5,986 L809.5,984 L811.5,984 Z M29,984 L29,986 L27,986 L27,984 L29,984 Z M691,984 L691,986 L689,986 L689,984 L691,984 Z M269.5,984 L269.5,986 L267.5,986 L267.5,984 L269.5,984 Z M992.5,984 L992.5,986 L990.5,986 L990.5,984 L992.5,984 Z M209.5,984 L209.5,986 L207.5,986 L207.5,984 L209.5,984 Z M1233.5,984 L1233.5,986 L1231.5,986 L1231.5,984 L1233.5,984 Z M1113,984 L1113,986 L1111,986 L1111,984 L1113,984 Z M1595,984 L1595,986 L1593,986 L1593,984 L1595,984 Z M390,984 L390,986 L388,986 L388,984 L390,984 Z M1173,984 L1173,986 L1171,986 L1171,984 L1173,984 Z M751.5,984 L751.5,986 L749.5,986 L749.5,984 L751.5,984 Z M1534.5,984 L1534.5,986 L1532.5,986 L1532.5,984 L1534.5,984 Z M570.5,984 L570.5,986 L568.5,986 L568.5,984 L570.5,984 Z M1414,984 L1414,986 L1412,986 L1412,984 L1414,984 Z M1474.5,984 L1474.5,986 L1472.5,986 L1472.5,984 L1474.5,984 Z M1775.5,984 L1775.5,986 L1773.5,986 L1773.5,984 L1775.5,984 Z M872,984 L872,986 L870,986 L870,984 L872,984 Z M1896,984 L1896,986 L1894,986 L1894,984 L1896,984 Z M89,984 L89,986 L87,986 L87,984 L89,984 Z M570.5,925 L570.5,927 L568.5,927 L568.5,925 L570.5,925 Z M1113,925 L1113,927 L1111,927 L1111,925 L1113,925 Z M811.5,925 L811.5,927 L809.5,927 L809.5,925 L811.5,925 Z M631,925 L631,927 L629,927 L629,925 L631,925 Z M872,925 L872,927 L870,927 L870,925 L872,925 Z M691,925 L691,927 L689,927 L689,925 L691,925 Z M1836,925 L1836,927 L1834,927 L1834,925 L1836,925 Z M450,925 L450,927 L448,927 L448,925 L450,925 Z M992.5,925 L992.5,927 L990.5,927 L990.5,925 L992.5,925 Z M1052.5,925 L1052.5,927 L1050.5,927 L1050.5,925 L1052.5,925 Z M1474.5,925 L1474.5,927 L1472.5,927 L1472.5,925 L1474.5,925 Z M1233.5,925 L1233.5,927 L1231.5,927 L1231.5,925 L1233.5,925 Z M29,925 L29,927 L27,927 L27,925 L29,925 Z M1293.5,925 L1293.5,927 L1291.5,927 L1291.5,925 L1293.5,925 Z M1595,925 L1595,927 L1593,927 L1593,925 L1595,925 Z M751.5,925 L751.5,927 L749.5,927 L749.5,925 L751.5,925 Z M932,925 L932,927 L930,927 L930,925 L932,925 Z M1173,925 L1173,927 L1171,927 L1171,925 L1173,925 Z M1655,925 L1655,927 L1653,927 L1653,925 L1655,925 Z M209.5,925 L209.5,927 L207.5,927 L207.5,925 L209.5,925 Z M1534.5,925 L1534.5,927 L1532.5,927 L1532.5,925 L1534.5,925 Z M1354,925 L1354,927 L1352,927 L1352,925 L1354,925 Z M149.5,925 L149.5,927 L147.5,927 L147.5,925 L149.5,925 Z M1414,925 L1414,927 L1412,927 L1412,925 L1414,925 Z M89,925 L89,927 L87,927 L87,925 L89,925 Z M390,925 L390,927 L388,927 L388,925 L390,925 Z M1775.5,925 L1775.5,927 L1773.5,927 L1773.5,925 L1775.5,925 Z M329.5,925 L329.5,927 L327.5,927 L327.5,925 L329.5,925 Z M269.5,925 L269.5,927 L267.5,927 L267.5,925 L269.5,925 Z M1896,925 L1896,927 L1894,927 L1894,925 L1896,925 Z M1715.5,925 L1715.5,927 L1713.5,927 L1713.5,925 L1715.5,925 Z M510.5,925 L510.5,927 L508.5,927 L508.5,925 L510.5,925 Z M992.5,866 L992.5,868 L990.5,868 L990.5,866 L992.5,866 Z M1655,866 L1655,868 L1653,868 L1653,866 L1655,866 Z M29,866 L29,868 L27,868 L27,866 L29,866 Z M751.5,866 L751.5,868 L749.5,868 L749.5,866 L751.5,866 Z M89,866 L89,868 L87,868 L87,866 L89,866 Z M269.5,866 L269.5,868 L267.5,868 L267.5,866 L269.5,866 Z M1354,866 L1354,868 L1352,868 L1352,866 L1354,866 Z M329.5,866 L329.5,868 L327.5,868 L327.5,866 L329.5,866 Z M811.5,866 L811.5,868 L809.5,868 L809.5,866 L811.5,866 Z M631,866 L631,868 L629,868 L629,866 L631,866 Z M1474.5,866 L1474.5,868 L1472.5,868 L1472.5,866 L1474.5,866 Z M932,866 L932,868 L930,868 L930,866 L932,866 Z M691,866 L691,868 L689,868 L689,866 L691,866 Z M872,866 L872,868 L870,868 L870,866 L872,866 Z M1113,866 L1113,868 L1111,868 L1111,866 L1113,866 Z M1293.5,866 L1293.5,868 L1291.5,868 L1291.5,866 L1293.5,866 Z M510.5,866 L510.5,868 L508.5,868 L508.5,866 L510.5,866 Z M570.5,866 L570.5,868 L568.5,868 L568.5,866 L570.5,866 Z M1233.5,866 L1233.5,868 L1231.5,868 L1231.5,866 L1233.5,866 Z M450,866 L450,868 L448,868 L448,866 L450,866 Z M1414,866 L1414,868 L1412,868 L1412,866 L1414,866 Z M1836,866 L1836,868 L1834,868 L1834,866 L1836,866 Z M1595,866 L1595,868 L1593,868 L1593,866 L1595,866 Z M1715.5,866 L1715.5,868 L1713.5,868 L1713.5,866 L1715.5,866 Z M1775.5,866 L1775.5,868 L1773.5,868 L1773.5,866 L1775.5,866 Z M1052.5,866 L1052.5,868 L1050.5,868 L1050.5,866 L1052.5,866 Z M209.5,866 L209.5,868 L207.5,868 L207.5,866 L209.5,866 Z M1173,866 L1173,868 L1171,868 L1171,866 L1173,866 Z M1896,866 L1896,868 L1894,868 L1894,866 L1896,866 Z M390,866 L390,868 L388,868 L388,866 L390,866 Z M149.5,866 L149.5,868 L147.5,868 L147.5,866 L149.5,866 Z M1534.5,866 L1534.5,868 L1532.5,868 L1532.5,866 L1534.5,866 Z M1233.5,806 L1233.5,808 L1231.5,808 L1231.5,806 L1233.5,806 Z M89,806 L89,808 L87,808 L87,806 L89,806 Z M1595,806 L1595,808 L1593,808 L1593,806 L1595,806 Z M751.5,806 L751.5,808 L749.5,808 L749.5,806 L751.5,806 Z M1354,806 L1354,808 L1352,808 L1352,806 L1354,806 Z M1836,806 L1836,808 L1834,808 L1834,806 L1836,806 Z M1113,806 L1113,808 L1111,808 L1111,806 L1113,806 Z M1173,806 L1173,808 L1171,808 L1171,806 L1173,806 Z M510.5,806 L510.5,808 L508.5,808 L508.5,806 L510.5,806 Z M811.5,806 L811.5,808 L809.5,808 L809.5,806 L811.5,806 Z M1293.5,806 L1293.5,808 L1291.5,808 L1291.5,806 L1293.5,806 Z M1655,806 L1655,808 L1653,808 L1653,806 L1655,806 Z M1534.5,806 L1534.5,808 L1532.5,808 L1532.5,806 L1534.5,806 Z M390,806 L390,808 L388,808 L388,806 L390,806 Z M1474.5,806 L1474.5,808 L1472.5,808 L1472.5,806 L1474.5,806 Z M691,806 L691,808 L689,808 L689,806 L691,806 Z M269.5,806 L269.5,808 L267.5,808 L267.5,806 L269.5,806 Z M1414,806 L1414,808 L1412,808 L1412,806 L1414,806 Z M209.5,806 L209.5,808 L207.5,808 L207.5,806 L209.5,806 Z M149.5,806 L149.5,808 L147.5,808 L147.5,806 L149.5,806 Z M570.5,806 L570.5,808 L568.5,808 L568.5,806 L570.5,806 Z M992.5,806 L992.5,808 L990.5,808 L990.5,806 L992.5,806 Z M1775.5,806 L1775.5,808 L1773.5,808 L1773.5,806 L1775.5,806 Z M450,806 L450,808 L448,808 L448,806 L450,806 Z M631,806 L631,808 L629,808 L629,806 L631,806 Z M1052.5,806 L1052.5,808 L1050.5,808 L1050.5,806 L1052.5,806 Z M329.5,806 L329.5,808 L327.5,808 L327.5,806 L329.5,806 Z M1896,806 L1896,808 L1894,808 L1894,806 L1896,806 Z M872,806 L872,808 L870,808 L870,806 L872,806 Z M1715.5,806 L1715.5,808 L1713.5,808 L1713.5,806 L1715.5,806 Z M932,806 L932,808 L930,808 L930,806 L932,806 Z M29,806 L29,808 L27,808 L27,806 L29,806 Z M510.5,747 L510.5,749 L508.5,749 L508.5,747 L510.5,747 Z M450,747 L450,749 L448,749 L448,747 L450,747 Z M1173,747 L1173,749 L1171,749 L1171,747 L1173,747 Z M1293.5,747 L1293.5,749 L1291.5,749 L1291.5,747 L1293.5,747 Z M932,747 L932,749 L930,749 L930,747 L932,747 Z M1474.5,747 L1474.5,749 L1472.5,749 L1472.5,747 L1474.5,747 Z M390,747 L390,749 L388,749 L388,747 L390,747 Z M1655,747 L1655,749 L1653,749 L1653,747 L1655,747 Z M1534.5,747 L1534.5,749 L1532.5,749 L1532.5,747 L1534.5,747 Z M149.5,747 L149.5,749 L147.5,749 L147.5,747 L149.5,747 Z M209.5,747 L209.5,749 L207.5,749 L207.5,747 L209.5,747 Z M811.5,747 L811.5,749 L809.5,749 L809.5,747 L811.5,747 Z M992.5,747 L992.5,749 L990.5,749 L990.5,747 L992.5,747 Z M269.5,747 L269.5,749 L267.5,749 L267.5,747 L269.5,747 Z M1595,747 L1595,749 L1593,749 L1593,747 L1595,747 Z M329.5,747 L329.5,749 L327.5,749 L327.5,747 L329.5,747 Z M1354,747 L1354,749 L1352,749 L1352,747 L1354,747 Z M1052.5,747 L1052.5,749 L1050.5,749 L1050.5,747 L1052.5,747 Z M29,747 L29,749 L27,749 L27,747 L29,747 Z M1233.5,747 L1233.5,749 L1231.5,749 L1231.5,747 L1233.5,747 Z M1775.5,747 L1775.5,749 L1773.5,749 L1773.5,747 L1775.5,747 Z M1836,747 L1836,749 L1834,749 L1834,747 L1836,747 Z M751.5,747 L751.5,749 L749.5,749 L749.5,747 L751.5,747 Z M691,747 L691,749 L689,749 L689,747 L691,747 Z M1113,747 L1113,749 L1111,749 L1111,747 L1113,747 Z M631,747 L631,749 L629,749 L629,747 L631,747 Z M1896,747 L1896,749 L1894,749 L1894,747 L1896,747 Z M89,747 L89,749 L87,749 L87,747 L89,747 Z M872,747 L872,749 L870,749 L870,747 L872,747 Z M1414,747 L1414,749 L1412,749 L1412,747 L1414,747 Z M570.5,747 L570.5,749 L568.5,749 L568.5,747 L570.5,747 Z M1715.5,747 L1715.5,749 L1713.5,749 L1713.5,747 L1715.5,747 Z M1052.5,687 L1052.5,689 L1050.5,689 L1050.5,687 L1052.5,687 Z M329.5,687 L329.5,689 L327.5,689 L327.5,687 L329.5,687 Z M1354,687 L1354,689 L1352,689 L1352,687 L1354,687 Z M29,687 L29,689 L27,689 L27,687 L29,687 Z M1534.5,687 L1534.5,689 L1532.5,689 L1532.5,687 L1534.5,687 Z M992.5,687 L992.5,689 L990.5,689 L990.5,687 L992.5,687 Z M1836,687 L1836,689 L1834,689 L1834,687 L1836,687 Z M510.5,687 L510.5,689 L508.5,689 L508.5,687 L510.5,687 Z M1655,687 L1655,689 L1653,689 L1653,687 L1655,687 Z M1715.5,687 L1715.5,689 L1713.5,689 L1713.5,687 L1715.5,687 Z M631,687 L631,689 L629,689 L629,687 L631,687 Z M1414,687 L1414,689 L1412,689 L1412,687 L1414,687 Z M570.5,687 L570.5,689 L568.5,689 L568.5,687 L570.5,687 Z M932,687 L932,689 L930,689 L930,687 L932,687 Z M149.5,687 L149.5,689 L147.5,689 L147.5,687 L149.5,687 Z M89,687 L89,689 L87,689 L87,687 L89,687 Z M1474.5,687 L1474.5,689 L1472.5,689 L1472.5,687 L1474.5,687 Z M811.5,687 L811.5,689 L809.5,689 L809.5,687 L811.5,687 Z M1775.5,687 L1775.5,689 L1773.5,689 L1773.5,687 L1775.5,687 Z M450,687 L450,689 L448,689 L448,687 L450,687 Z M872,687 L872,689 L870,689 L870,687 L872,687 Z M1113,687 L1113,689 L1111,689 L1111,687 L1113,687 Z M209.5,687 L209.5,689 L207.5,689 L207.5,687 L209.5,687 Z M1595,687 L1595,689 L1593,689 L1593,687 L1595,687 Z M751.5,687 L751.5,689 L749.5,689 L749.5,687 L751.5,687 Z M1896,687 L1896,689 L1894,689 L1894,687 L1896,687 Z M269.5,687 L269.5,689 L267.5,689 L267.5,687 L269.5,687 Z M1293.5,687 L1293.5,689 L1291.5,689 L1291.5,687 L1293.5,687 Z M1173,687 L1173,689 L1171,689 L1171,687 L1173,687 Z M390,687 L390,689 L388,689 L388,687 L390,687 Z M691,687 L691,689 L689,689 L689,687 L691,687 Z M1233.5,687 L1233.5,689 L1231.5,689 L1231.5,687 L1233.5,687 Z M269.5,628 L269.5,630 L267.5,630 L267.5,628 L269.5,628 Z M1233.5,628 L1233.5,630 L1231.5,630 L1231.5,628 L1233.5,628 Z M209.5,628 L209.5,630 L207.5,630 L207.5,628 L209.5,628 Z M450,628 L450,630 L448,630 L448,628 L450,628 Z M751.5,628 L751.5,630 L749.5,630 L749.5,628 L751.5,628 Z M1052.5,628 L1052.5,630 L1050.5,630 L1050.5,628 L1052.5,628 Z M570.5,628 L570.5,630 L568.5,630 L568.5,628 L570.5,628 Z M89,628 L89,630 L87,630 L87,628 L89,628 Z M1414,628 L1414,630 L1412,630 L1412,628 L1414,628 Z M811.5,628 L811.5,630 L809.5,630 L809.5,628 L811.5,628 Z M390,628 L390,630 L388,630 L388,628 L390,628 Z M1354,628 L1354,630 L1352,630 L1352,628 L1354,628 Z M872,628 L872,630 L870,630 L870,628 L872,628 Z M510.5,628 L510.5,630 L508.5,630 L508.5,628 L510.5,628 Z M1474.5,628 L1474.5,630 L1472.5,630 L1472.5,628 L1474.5,628 Z M691,628 L691,630 L689,630 L689,628 L691,628 Z M1775.5,628 L1775.5,630 L1773.5,630 L1773.5,628 L1775.5,628 Z M1113,628 L1113,630 L1111,630 L1111,628 L1113,628 Z M329.5,628 L329.5,630 L327.5,630 L327.5,628 L329.5,628 Z M1293.5,628 L1293.5,630 L1291.5,630 L1291.5,628 L1293.5,628 Z M29,628 L29,630 L27,630 L27,628 L29,628 Z M1715.5,628 L1715.5,630 L1713.5,630 L1713.5,628 L1715.5,628 Z M1173,628 L1173,630 L1171,630 L1171,628 L1173,628 Z M992.5,628 L992.5,630 L990.5,630 L990.5,628 L992.5,628 Z M1896,628 L1896,630 L1894,630 L1894,628 L1896,628 Z M1836,628 L1836,630 L1834,630 L1834,628 L1836,628 Z M149.5,628 L149.5,630 L147.5,630 L147.5,628 L149.5,628 Z M631,628 L631,630 L629,630 L629,628 L631,628 Z M1595,628 L1595,630 L1593,630 L1593,628 L1595,628 Z M932,628 L932,630 L930,630 L930,628 L932,628 Z M1655,628 L1655,630 L1653,630 L1653,628 L1655,628 Z M1534.5,628 L1534.5,630 L1532.5,630 L1532.5,628 L1534.5,628 Z M89,569 L89,571 L87,571 L87,569 L89,569 Z M1655,569 L1655,571 L1653,571 L1653,569 L1655,569 Z M1715.5,569 L1715.5,571 L1713.5,571 L1713.5,569 L1715.5,569 Z M1836,569 L1836,571 L1834,571 L1834,569 L1836,569 Z M691,569 L691,571 L689,571 L689,569 L691,569 Z M1414,569 L1414,571 L1412,571 L1412,569 L1414,569 Z M29,569 L29,571 L27,571 L27,569 L29,569 Z M1595,569 L1595,571 L1593,571 L1593,569 L1595,569 Z M209.5,569 L209.5,571 L207.5,571 L207.5,569 L209.5,569 Z M390,569 L390,571 L388,571 L388,569 L390,569 Z M570.5,569 L570.5,571 L568.5,571 L568.5,569 L570.5,569 Z M510.5,569 L510.5,571 L508.5,571 L508.5,569 L510.5,569 Z M872,569 L872,571 L870,571 L870,569 L872,569 Z M269.5,569 L269.5,571 L267.5,571 L267.5,569 L269.5,569 Z M1775.5,569 L1775.5,571 L1773.5,571 L1773.5,569 L1775.5,569 Z M149.5,569 L149.5,571 L147.5,571 L147.5,569 L149.5,569 Z M992.5,569 L992.5,571 L990.5,571 L990.5,569 L992.5,569 Z M1173,569 L1173,571 L1171,571 L1171,569 L1173,569 Z M1293.5,569 L1293.5,571 L1291.5,571 L1291.5,569 L1293.5,569 Z M450,569 L450,571 L448,571 L448,569 L450,569 Z M751.5,569 L751.5,571 L749.5,571 L749.5,569 L751.5,569 Z M631,569 L631,571 L629,571 L629,569 L631,569 Z M932,569 L932,571 L930,571 L930,569 L932,569 Z M1896,569 L1896,571 L1894,571 L1894,569 L1896,569 Z M811.5,569 L811.5,571 L809.5,571 L809.5,569 L811.5,569 Z M1113,569 L1113,571 L1111,571 L1111,569 L1113,569 Z M1474.5,569 L1474.5,571 L1472.5,571 L1472.5,569 L1474.5,569 Z M1534.5,569 L1534.5,571 L1532.5,571 L1532.5,569 L1534.5,569 Z M1233.5,569 L1233.5,571 L1231.5,571 L1231.5,569 L1233.5,569 Z M1354,569 L1354,571 L1352,571 L1352,569 L1354,569 Z M329.5,569 L329.5,571 L327.5,571 L327.5,569 L329.5,569 Z M1052.5,569 L1052.5,571 L1050.5,571 L1050.5,569 L1052.5,569 Z M1534.5,509 L1534.5,511 L1532.5,511 L1532.5,509 L1534.5,509 Z M29,509 L29,511 L27,511 L27,509 L29,509 Z M1414,509 L1414,511 L1412,511 L1412,509 L1414,509 Z M510.5,509 L510.5,511 L508.5,511 L508.5,509 L510.5,509 Z M450,509 L450,511 L448,511 L448,509 L450,509 Z M1354,509 L1354,511 L1352,511 L1352,509 L1354,509 Z M992.5,509 L992.5,511 L990.5,511 L990.5,509 L992.5,509 Z M1052.5,509 L1052.5,511 L1050.5,511 L1050.5,509 L1052.5,509 Z M751.5,509 L751.5,511 L749.5,511 L749.5,509 L751.5,509 Z M149.5,509 L149.5,511 L147.5,511 L147.5,509 L149.5,509 Z M1113,509 L1113,511 L1111,511 L1111,509 L1113,509 Z M1173,509 L1173,511 L1171,511 L1171,509 L1173,509 Z M1775.5,509 L1775.5,511 L1773.5,511 L1773.5,509 L1775.5,509 Z M1233.5,509 L1233.5,511 L1231.5,511 L1231.5,509 L1233.5,509 Z M1474.5,509 L1474.5,511 L1472.5,511 L1472.5,509 L1474.5,509 Z M329.5,509 L329.5,511 L327.5,511 L327.5,509 L329.5,509 Z M1715.5,509 L1715.5,511 L1713.5,511 L1713.5,509 L1715.5,509 Z M691,509 L691,511 L689,511 L689,509 L691,509 Z M89,509 L89,511 L87,511 L87,509 L89,509 Z M811.5,509 L811.5,511 L809.5,511 L809.5,509 L811.5,509 Z M1293.5,509 L1293.5,511 L1291.5,511 L1291.5,509 L1293.5,509 Z M932,509 L932,511 L930,511 L930,509 L932,509 Z M1896,509 L1896,511 L1894,511 L1894,509 L1896,509 Z M390,509 L390,511 L388,511 L388,509 L390,509 Z M631,509 L631,511 L629,511 L629,509 L631,509 Z M209.5,509 L209.5,511 L207.5,511 L207.5,509 L209.5,509 Z M269.5,509 L269.5,511 L267.5,511 L267.5,509 L269.5,509 Z M570.5,509 L570.5,511 L568.5,511 L568.5,509 L570.5,509 Z M1836,509 L1836,511 L1834,511 L1834,509 L1836,509 Z M1595,509 L1595,511 L1593,511 L1593,509 L1595,509 Z M872,509 L872,511 L870,511 L870,509 L872,509 Z M1655,509 L1655,511 L1653,511 L1653,509 L1655,509 Z M1052.5,450 L1052.5,452 L1050.5,452 L1050.5,450 L1052.5,450 Z M450,450 L450,452 L448,452 L448,450 L450,450 Z M1414,450 L1414,452 L1412,452 L1412,450 L1414,450 Z M1293.5,450 L1293.5,452 L1291.5,452 L1291.5,450 L1293.5,450 Z M691,450 L691,452 L689,452 L689,450 L691,450 Z M631,450 L631,452 L629,452 L629,450 L631,450 Z M570.5,450 L570.5,452 L568.5,452 L568.5,450 L570.5,450 Z M1836,450 L1836,452 L1834,452 L1834,450 L1836,450 Z M390,450 L390,452 L388,452 L388,450 L390,450 Z M1534.5,450 L1534.5,452 L1532.5,452 L1532.5,450 L1534.5,450 Z M992.5,450 L992.5,452 L990.5,452 L990.5,450 L992.5,450 Z M1655,450 L1655,452 L1653,452 L1653,450 L1655,450 Z M1775.5,450 L1775.5,452 L1773.5,452 L1773.5,450 L1775.5,450 Z M329.5,450 L329.5,452 L327.5,452 L327.5,450 L329.5,450 Z M209.5,450 L209.5,452 L207.5,452 L207.5,450 L209.5,450 Z M89,450 L89,452 L87,452 L87,450 L89,450 Z M1474.5,450 L1474.5,452 L1472.5,452 L1472.5,450 L1474.5,450 Z M1354,450 L1354,452 L1352,452 L1352,450 L1354,450 Z M149.5,450 L149.5,452 L147.5,452 L147.5,450 L149.5,450 Z M1113,450 L1113,452 L1111,452 L1111,450 L1113,450 Z M510.5,450 L510.5,452 L508.5,452 L508.5,450 L510.5,450 Z M1233.5,450 L1233.5,452 L1231.5,452 L1231.5,450 L1233.5,450 Z M1896,450 L1896,452 L1894,452 L1894,450 L1896,450 Z M29,450 L29,452 L27,452 L27,450 L29,450 Z M932,450 L932,452 L930,452 L930,450 L932,450 Z M1715.5,450 L1715.5,452 L1713.5,452 L1713.5,450 L1715.5,450 Z M1173,450 L1173,452 L1171,452 L1171,450 L1173,450 Z M811.5,450 L811.5,452 L809.5,452 L809.5,450 L811.5,450 Z M269.5,450 L269.5,452 L267.5,452 L267.5,450 L269.5,450 Z M1595,450 L1595,452 L1593,452 L1593,450 L1595,450 Z M872,450 L872,452 L870,452 L870,450 L872,450 Z M751.5,450 L751.5,452 L749.5,452 L749.5,450 L751.5,450 Z M1354,391 L1354,393 L1352,393 L1352,391 L1354,391 Z M329.5,391 L329.5,393 L327.5,393 L327.5,391 L329.5,391 Z M1173,391 L1173,393 L1171,393 L1171,391 L1173,391 Z M1715.5,391 L1715.5,393 L1713.5,393 L1713.5,391 L1715.5,391 Z M1474.5,391 L1474.5,393 L1472.5,393 L1472.5,391 L1474.5,391 Z M751.5,391 L751.5,393 L749.5,393 L749.5,391 L751.5,391 Z M29,391 L29,393 L27,393 L27,391 L29,391 Z M570.5,391 L570.5,393 L568.5,393 L568.5,391 L570.5,391 Z M1655,391 L1655,393 L1653,393 L1653,391 L1655,391 Z M89,391 L89,393 L87,393 L87,391 L89,391 Z M1293.5,391 L1293.5,393 L1291.5,393 L1291.5,391 L1293.5,391 Z M932,391 L932,393 L930,393 L930,391 L932,391 Z M1775.5,391 L1775.5,393 L1773.5,393 L1773.5,391 L1775.5,391 Z M691,391 L691,393 L689,393 L689,391 L691,391 Z M510.5,391 L510.5,393 L508.5,393 L508.5,391 L510.5,391 Z M450,391 L450,393 L448,393 L448,391 L450,391 Z M811.5,391 L811.5,393 L809.5,393 L809.5,391 L811.5,391 Z M1595,391 L1595,393 L1593,393 L1593,391 L1595,391 Z M872,391 L872,393 L870,393 L870,391 L872,391 Z M631,391 L631,393 L629,393 L629,391 L631,391 Z M390,391 L390,393 L388,393 L388,391 L390,391 Z M1534.5,391 L1534.5,393 L1532.5,393 L1532.5,391 L1534.5,391 Z M1896,391 L1896,393 L1894,393 L1894,391 L1896,391 Z M149.5,391 L149.5,393 L147.5,393 L147.5,391 L149.5,391 Z M1052.5,391 L1052.5,393 L1050.5,393 L1050.5,391 L1052.5,391 Z M1233.5,391 L1233.5,393 L1231.5,393 L1231.5,391 L1233.5,391 Z M209.5,391 L209.5,393 L207.5,393 L207.5,391 L209.5,391 Z M992.5,391 L992.5,393 L990.5,393 L990.5,391 L992.5,391 Z M1113,391 L1113,393 L1111,393 L1111,391 L1113,391 Z M269.5,391 L269.5,393 L267.5,393 L267.5,391 L269.5,391 Z M1836,391 L1836,393 L1834,393 L1834,391 L1836,391 Z M1414,391 L1414,393 L1412,393 L1412,391 L1414,391 Z M450,331 L450,333 L448,333 L448,331 L450,331 Z M932,331 L932,333 L930,333 L930,331 L932,331 Z M1414,331 L1414,333 L1412,333 L1412,331 L1414,331 Z M1233.5,331 L1233.5,333 L1231.5,333 L1231.5,331 L1233.5,331 Z M872,331 L872,333 L870,333 L870,331 L872,331 Z M1113,331 L1113,333 L1111,333 L1111,331 L1113,331 Z M390,331 L390,333 L388,333 L388,331 L390,331 Z M1474.5,331 L1474.5,333 L1472.5,333 L1472.5,331 L1474.5,331 Z M1052.5,331 L1052.5,333 L1050.5,333 L1050.5,331 L1052.5,331 Z M149.5,331 L149.5,333 L147.5,333 L147.5,331 L149.5,331 Z M329.5,331 L329.5,333 L327.5,333 L327.5,331 L329.5,331 Z M1173,331 L1173,333 L1171,333 L1171,331 L1173,331 Z M1775.5,331 L1775.5,333 L1773.5,333 L1773.5,331 L1775.5,331 Z M811.5,331 L811.5,333 L809.5,333 L809.5,331 L811.5,331 Z M1595,331 L1595,333 L1593,333 L1593,331 L1595,331 Z M751.5,331 L751.5,333 L749.5,333 L749.5,331 L751.5,331 Z M570.5,331 L570.5,333 L568.5,333 L568.5,331 L570.5,331 Z M631,331 L631,333 L629,333 L629,331 L631,331 Z M1354,331 L1354,333 L1352,333 L1352,331 L1354,331 Z M1715.5,331 L1715.5,333 L1713.5,333 L1713.5,331 L1715.5,331 Z M29,331 L29,333 L27,333 L27,331 L29,331 Z M992.5,331 L992.5,333 L990.5,333 L990.5,331 L992.5,331 Z M1896,331 L1896,333 L1894,333 L1894,331 L1896,331 Z M1534.5,331 L1534.5,333 L1532.5,333 L1532.5,331 L1534.5,331 Z M1293.5,331 L1293.5,333 L1291.5,333 L1291.5,331 L1293.5,331 Z M89,331 L89,333 L87,333 L87,331 L89,331 Z M691,331 L691,333 L689,333 L689,331 L691,331 Z M269.5,331 L269.5,333 L267.5,333 L267.5,331 L269.5,331 Z M1655,331 L1655,333 L1653,333 L1653,331 L1655,331 Z M510.5,331 L510.5,333 L508.5,333 L508.5,331 L510.5,331 Z M1836,331 L1836,333 L1834,333 L1834,331 L1836,331 Z M209.5,331 L209.5,333 L207.5,333 L207.5,331 L209.5,331 Z M149.5,272 L149.5,274 L147.5,274 L147.5,272 L149.5,272 Z M1113,272 L1113,274 L1111,274 L1111,272 L1113,272 Z M1715.5,272 L1715.5,274 L1713.5,274 L1713.5,272 L1715.5,272 Z M1293.5,272 L1293.5,274 L1291.5,274 L1291.5,272 L1293.5,272 Z M329.5,272 L329.5,274 L327.5,274 L327.5,272 L329.5,272 Z M872,272 L872,274 L870,274 L870,272 L872,272 Z M992.5,272 L992.5,274 L990.5,274 L990.5,272 L992.5,272 Z M29,272 L29,274 L27,274 L27,272 L29,272 Z M390,272 L390,274 L388,274 L388,272 L390,272 Z M1655,272 L1655,274 L1653,274 L1653,272 L1655,272 Z M811.5,272 L811.5,274 L809.5,274 L809.5,272 L811.5,272 Z M1836,272 L1836,274 L1834,274 L1834,272 L1836,272 Z M631,272 L631,274 L629,274 L629,272 L631,272 Z M450,272 L450,274 L448,274 L448,272 L450,272 Z M510.5,272 L510.5,274 L508.5,274 L508.5,272 L510.5,272 Z M1595,272 L1595,274 L1593,274 L1593,272 L1595,272 Z M209.5,272 L209.5,274 L207.5,274 L207.5,272 L209.5,272 Z M89,272 L89,274 L87,274 L87,272 L89,272 Z M1052.5,272 L1052.5,274 L1050.5,274 L1050.5,272 L1052.5,272 Z M269.5,272 L269.5,274 L267.5,274 L267.5,272 L269.5,272 Z M1534.5,272 L1534.5,274 L1532.5,274 L1532.5,272 L1534.5,272 Z M932,272 L932,274 L930,274 L930,272 L932,272 Z M1896,272 L1896,274 L1894,274 L1894,272 L1896,272 Z M1474.5,272 L1474.5,274 L1472.5,274 L1472.5,272 L1474.5,272 Z M1173,272 L1173,274 L1171,274 L1171,272 L1173,272 Z M691,272 L691,274 L689,274 L689,272 L691,272 Z M1354,272 L1354,274 L1352,274 L1352,272 L1354,272 Z M1775.5,272 L1775.5,274 L1773.5,274 L1773.5,272 L1775.5,272 Z M570.5,272 L570.5,274 L568.5,274 L568.5,272 L570.5,272 Z M1233.5,272 L1233.5,274 L1231.5,274 L1231.5,272 L1233.5,272 Z M751.5,272 L751.5,274 L749.5,274 L749.5,272 L751.5,272 Z M1414,272 L1414,274 L1412,274 L1412,272 L1414,272 Z M89,212 L89,214 L87,214 L87,212 L89,212 Z M510.5,212 L510.5,214 L508.5,214 L508.5,212 L510.5,212 Z M570.5,212 L570.5,214 L568.5,214 L568.5,212 L570.5,212 Z M691,212 L691,214 L689,214 L689,212 L691,212 Z M1655,212 L1655,214 L1653,214 L1653,212 L1655,212 Z M872,212 L872,214 L870,214 L870,212 L872,212 Z M1534.5,212 L1534.5,214 L1532.5,214 L1532.5,212 L1534.5,212 Z M390,212 L390,214 L388,214 L388,212 L390,212 Z M209.5,212 L209.5,214 L207.5,214 L207.5,212 L209.5,212 Z M149.5,212 L149.5,214 L147.5,214 L147.5,212 L149.5,212 Z M450,212 L450,214 L448,214 L448,212 L450,212 Z M1293.5,212 L1293.5,214 L1291.5,214 L1291.5,212 L1293.5,212 Z M631,212 L631,214 L629,214 L629,212 L631,212 Z M992.5,212 L992.5,214 L990.5,214 L990.5,212 L992.5,212 Z M1715.5,212 L1715.5,214 L1713.5,214 L1713.5,212 L1715.5,212 Z M329.5,212 L329.5,214 L327.5,214 L327.5,212 L329.5,212 Z M1414,212 L1414,214 L1412,214 L1412,212 L1414,212 Z M269.5,212 L269.5,214 L267.5,214 L267.5,212 L269.5,212 Z M1354,212 L1354,214 L1352,214 L1352,212 L1354,212 Z M1233.5,212 L1233.5,214 L1231.5,214 L1231.5,212 L1233.5,212 Z M1052.5,212 L1052.5,214 L1050.5,214 L1050.5,212 L1052.5,212 Z M1474.5,212 L1474.5,214 L1472.5,214 L1472.5,212 L1474.5,212 Z M1896,212 L1896,214 L1894,214 L1894,212 L1896,212 Z M932,212 L932,214 L930,214 L930,212 L932,212 Z M751.5,212 L751.5,214 L749.5,214 L749.5,212 L751.5,212 Z M1836,212 L1836,214 L1834,214 L1834,212 L1836,212 Z M1173,212 L1173,214 L1171,214 L1171,212 L1173,212 Z M1775.5,212 L1775.5,214 L1773.5,214 L1773.5,212 L1775.5,212 Z M29,212 L29,214 L27,214 L27,212 L29,212 Z M1113,212 L1113,214 L1111,214 L1111,212 L1113,212 Z M811.5,212 L811.5,214 L809.5,214 L809.5,212 L811.5,212 Z M1595,212 L1595,214 L1593,214 L1593,212 L1595,212 Z M1354,153 L1354,155 L1352,155 L1352,153 L1354,153 Z M450,153 L450,155 L448,155 L448,153 L450,153 Z M1052.5,153 L1052.5,155 L1050.5,155 L1050.5,153 L1052.5,153 Z M329.5,153 L329.5,155 L327.5,155 L327.5,153 L329.5,153 Z M390,153 L390,155 L388,155 L388,153 L390,153 Z M1595,153 L1595,155 L1593,155 L1593,153 L1595,153 Z M1113,153 L1113,155 L1111,155 L1111,153 L1113,153 Z M631,153 L631,155 L629,155 L629,153 L631,153 Z M209.5,153 L209.5,155 L207.5,155 L207.5,153 L209.5,153 Z M992.5,153 L992.5,155 L990.5,155 L990.5,153 L992.5,153 Z M1293.5,153 L1293.5,155 L1291.5,155 L1291.5,153 L1293.5,153 Z M89,153 L89,155 L87,155 L87,153 L89,153 Z M570.5,153 L570.5,155 L568.5,155 L568.5,153 L570.5,153 Z M932,153 L932,155 L930,155 L930,153 L932,153 Z M1715.5,153 L1715.5,155 L1713.5,155 L1713.5,153 L1715.5,153 Z M1474.5,153 L1474.5,155 L1472.5,155 L1472.5,153 L1474.5,153 Z M1173,153 L1173,155 L1171,155 L1171,153 L1173,153 Z M751.5,153 L751.5,155 L749.5,155 L749.5,153 L751.5,153 Z M1655,153 L1655,155 L1653,155 L1653,153 L1655,153 Z M1836,153 L1836,155 L1834,155 L1834,153 L1836,153 Z M1534.5,153 L1534.5,155 L1532.5,155 L1532.5,153 L1534.5,153 Z M510.5,153 L510.5,155 L508.5,155 L508.5,153 L510.5,153 Z M1896,153 L1896,155 L1894,155 L1894,153 L1896,153 Z M872,153 L872,155 L870,155 L870,153 L872,153 Z M1233.5,153 L1233.5,155 L1231.5,155 L1231.5,153 L1233.5,153 Z M149.5,153 L149.5,155 L147.5,155 L147.5,153 L149.5,153 Z M811.5,153 L811.5,155 L809.5,155 L809.5,153 L811.5,153 Z M1775.5,153 L1775.5,155 L1773.5,155 L1773.5,153 L1775.5,153 Z M269.5,153 L269.5,155 L267.5,155 L267.5,153 L269.5,153 Z M691,153 L691,155 L689,155 L689,153 L691,153 Z M29,153 L29,155 L27,155 L27,153 L29,153 Z M1414,153 L1414,155 L1412,155 L1412,153 L1414,153 Z M1655,94 L1655,96 L1653,96 L1653,94 L1655,94 Z M149.5,94 L149.5,96 L147.5,96 L147.5,94 L149.5,94 Z M1414,94 L1414,96 L1412,96 L1412,94 L1414,94 Z M1233.5,94 L1233.5,96 L1231.5,96 L1231.5,94 L1233.5,94 Z M329.5,94 L329.5,96 L327.5,96 L327.5,94 L329.5,94 Z M992.5,94 L992.5,96 L990.5,96 L990.5,94 L992.5,94 Z M390,94 L390,96 L388,96 L388,94 L390,94 Z M570.5,94 L570.5,96 L568.5,96 L568.5,94 L570.5,94 Z M209.5,94 L209.5,96 L207.5,96 L207.5,94 L209.5,94 Z M1595,94 L1595,96 L1593,96 L1593,94 L1595,94 Z M1052.5,94 L1052.5,96 L1050.5,96 L1050.5,94 L1052.5,94 Z M1113,94 L1113,96 L1111,96 L1111,94 L1113,94 Z M1775.5,94 L1775.5,96 L1773.5,96 L1773.5,94 L1775.5,94 Z M811.5,94 L811.5,96 L809.5,96 L809.5,94 L811.5,94 Z M1474.5,94 L1474.5,96 L1472.5,96 L1472.5,94 L1474.5,94 Z M631,94 L631,96 L629,96 L629,94 L631,94 Z M269.5,94 L269.5,96 L267.5,96 L267.5,94 L269.5,94 Z M89,94 L89,96 L87,96 L87,94 L89,94 Z M1715.5,94 L1715.5,96 L1713.5,96 L1713.5,94 L1715.5,94 Z M29,94 L29,96 L27,96 L27,94 L29,94 Z M691,94 L691,96 L689,96 L689,94 L691,94 Z M751.5,94 L751.5,96 L749.5,96 L749.5,94 L751.5,94 Z M1896,94 L1896,96 L1894,96 L1894,94 L1896,94 Z M1534.5,94 L1534.5,96 L1532.5,96 L1532.5,94 L1534.5,94 Z M1293.5,94 L1293.5,96 L1291.5,96 L1291.5,94 L1293.5,94 Z M1836,94 L1836,96 L1834,96 L1834,94 L1836,94 Z M1173,94 L1173,96 L1171,96 L1171,94 L1173,94 Z M510.5,94 L510.5,96 L508.5,96 L508.5,94 L510.5,94 Z M932,94 L932,96 L930,96 L930,94 L932,94 Z M872,94 L872,96 L870,96 L870,94 L872,94 Z M450,94 L450,96 L448,96 L448,94 L450,94 Z M1354,94 L1354,96 L1352,96 L1352,94 L1354,94 Z M89,34 L89,36 L87,36 L87,34 L89,34 Z M932,34 L932,36 L930,36 L930,34 L932,34 Z M1414,34 L1414,36 L1412,36 L1412,34 L1414,34 Z M1113,34 L1113,36 L1111,36 L1111,34 L1113,34 Z M1474.5,34 L1474.5,36 L1472.5,36 L1472.5,34 L1474.5,34 Z M1354,34 L1354,36 L1352,36 L1352,34 L1354,34 Z M1715.5,34 L1715.5,36 L1713.5,36 L1713.5,34 L1715.5,34 Z M992.5,34 L992.5,36 L990.5,36 L990.5,34 L992.5,34 Z M1052.5,34 L1052.5,36 L1050.5,36 L1050.5,34 L1052.5,34 Z M1836,34 L1836,36 L1834,36 L1834,34 L1836,34 Z M29,34 L29,36 L27,36 L27,34 L29,34 Z M1173,34 L1173,36 L1171,36 L1171,34 L1173,34 Z M1775.5,34 L1775.5,36 L1773.5,36 L1773.5,34 L1775.5,34 Z M811.5,34 L811.5,36 L809.5,36 L809.5,34 L811.5,34 Z M1655,34 L1655,36 L1653,36 L1653,34 L1655,34 Z M329.5,34 L329.5,36 L327.5,36 L327.5,34 L329.5,34 Z M209.5,34 L209.5,36 L207.5,36 L207.5,34 L209.5,34 Z M390,34 L390,36 L388,36 L388,34 L390,34 Z M570.5,34 L570.5,36 L568.5,36 L568.5,34 L570.5,34 Z M1233.5,34 L1233.5,36 L1231.5,36 L1231.5,34 L1233.5,34 Z M872,34 L872,36 L870,36 L870,34 L872,34 Z M269.5,34 L269.5,36 L267.5,36 L267.5,34 L269.5,34 Z M1896,34 L1896,36 L1894,36 L1894,34 L1896,34 Z M1534.5,34 L1534.5,36 L1532.5,36 L1532.5,34 L1534.5,34 Z M450,34 L450,36 L448,36 L448,34 L450,34 Z M751.5,34 L751.5,36 L749.5,36 L749.5,34 L751.5,34 Z M691,34 L691,36 L689,36 L689,34 L691,34 Z M1293.5,34 L1293.5,36 L1291.5,36 L1291.5,34 L1293.5,34 Z M631,34 L631,36 L629,36 L629,34 L631,34 Z M510.5,34 L510.5,36 L508.5,36 L508.5,34 L510.5,34 Z M149.5,34 L149.5,36 L147.5,36 L147.5,34 L149.5,34 Z M1595,34 L1595,36 L1593,36 L1593,34 L1595,34 Z" id="形状结合" fill="#FE615A" opacity="0.15"></path>
                <g id="编组-25">
                    <path d="M1816,1019 L1818,1021 L1827,1021 L1827,1024 L1813,1024 L1813,1019 L1816,1019 Z M1835,1019 L1837,1021 L1846,1021 L1846,1024 L1832,1024 L1832,1021 L1832,1021 L1832,1019 L1835,1019 Z M1854,1019 L1856,1021 L1865,1021 L1865,1024 L1851,1024 L1851,1019 L1854,1019 Z M1873,1019 L1875,1021 L1884,1021 L1884,1024 L1870,1024 L1870,1019 L1873,1019 Z M1892,1019 L1894,1021 L1903,1021 L1903,1024 L1889,1024 L1889,1021 L1889,1021 L1889,1019 L1892,1019 Z M1908,1019 L1911,1019 L1913,1021 L1922,1021 L1922,1024 L1908,1024 L1908,1019 Z" id="形状结合备份" fill-opacity="0.15" fill="#FE615A"></path>
                    <g id="编组-17" transform="translate(1290.000000, 0.000000)">
                        <polyline id="路径-62" stroke="url(#linearGradient-4)" points="0.897643761 2.84217094e-14 0.897643761 272.998454 137 272.998454 137 391.747681 667 391.747681"></polyline>
                        <rect id="矩形" fill="#FE615A" opacity="0.4" x="0" y="272" width="2" height="2"></rect>
                        <rect id="矩形备份-628" fill="#FE615A" opacity="0.4" x="136" y="272" width="2" height="2"></rect>
                        <rect id="矩形备份-629" fill="#FE615A" opacity="0.4" x="136" y="391" width="2" height="2"></rect>
                    </g>
                    <g id="编组-18" transform="translate(0.000000, 384.000000)" fill="#FE615A" fill-opacity="0.07">
                        <rect id="矩形" x="3" y="10" width="87" height="3"></rect>
                        <rect id="矩形备份-630" x="0" y="16" width="50" height="9"></rect>
                        <rect id="矩形备份-631" x="53" y="34" width="50" height="3"></rect>
                        <rect id="矩形备份-632" x="33" y="0" width="40" height="3"></rect>
                    </g>
                    <g id="编组-18备份-4" transform="translate(1549.000000, 879.000000)" fill="#FE615A" fill-opacity="0.07">
                        <rect id="矩形" x="0" y="16" width="56" height="3"></rect>
                        <rect id="矩形备份-630" x="0" y="22" width="74" height="3"></rect>
                        <rect id="矩形备份-631" x="0" y="9" width="107" height="3"></rect>
                        <rect id="矩形备份-633" x="0" y="0" width="45" height="3"></rect>
                        <rect id="矩形备份-637" x="0" y="40" width="45" height="3"></rect>
                    </g>
                    <g id="编组-18备份-3" transform="translate(1241.000000, 136.000000)" fill="#FE615A" fill-opacity="0.07">
                        <rect id="矩形" x="0" y="0" width="99" height="3"></rect>
                        <rect id="矩形备份-630" x="0" y="39" width="57" height="3"></rect>
                        <rect id="矩形备份-631" x="0" y="48" width="82" height="3"></rect>
                        <rect id="矩形备份-633" x="0" y="12" width="34" height="9"></rect>
                        <rect id="矩形备份-636" x="0" y="57" width="34" height="3"></rect>
                    </g>
                    <g id="编组-18备份-2" transform="translate(1681.000000, 436.000000)" fill="#FE615A" fill-opacity="0.07">
                        <rect id="矩形备份-630" x="0" y="43" width="72" height="3"></rect>
                        <rect id="矩形备份-633" x="0" y="37" width="30" height="3"></rect>
                        <rect id="矩形备份-635" x="57" y="0" width="30" height="9"></rect>
                        <rect id="矩形备份-634" x="69" y="25" width="50" height="3"></rect>
                    </g>
                    <line x1="1057" y1="95" x2="1177" y2="95" id="路径-64" stroke="#FE615A" stroke-width="3" opacity="0.2" stroke-dasharray="3"></line>
                    <line x1="979" y1="95" x2="1029" y2="95" id="路径-64备份" stroke="#FE615A" stroke-width="3" opacity="0.2" stroke-dasharray="3"></line>
                    <line x1="933" y1="95" x2="953" y2="95" id="路径-64备份-2" stroke="#FE615A" stroke-width="3" opacity="0.2" stroke-dasharray="3"></line>
                    <g id="编组-22" transform="translate(37.000000, 444.000000)">
                        <polyline id="路径-65" stroke="url(#linearGradient-5)" points="748.45614 1.13867197 362 1.13867197 362 292.798637 0 292.798637"></polyline>
                        <rect id="矩形" fill-opacity="0.4" fill="#FE615A" x="361" y="0" width="2" height="2"></rect>
                        <rect id="矩形备份-639" fill-opacity="0.4" fill="#FE615A" x="569" y="0" width="2" height="2"></rect>
                        <rect id="矩形备份-638" fill-opacity="0.4" fill="#FE615A" x="361" y="292" width="2" height="2"></rect>
                    </g>
                    <g id="编组-23" transform="translate(686.413852, 176.000000)">
                        <line x1="40.5861481" y1="1" x2="40.5861481" y2="137.5" id="路径-66" stroke="#FE615A" opacity="0.2"></line>
                        <rect id="矩形" fill-opacity="0.4" fill="#FE615A" x="39.5861481" y="0" width="2" height="2"></rect>
                        <rect id="矩形备份-641" fill-opacity="0.4" fill="#FE615A" x="280.586148" y="86" width="2" height="2"></rect>
                        <rect id="矩形备份-640" fill-opacity="0.4" fill="#FE615A" x="39.5861481" y="137" width="2" height="2"></rect>
                        <polyline id="路径-67" stroke="#FE615A" opacity="0.15" points="0 87 282 87 282 217"></polyline>
                    </g>
                    <path d="M442,472 L444,474 L453,474 L453,477 L439,477 L439,472 L442,472 Z M461,472 L463,474 L472,474 L472,477 L458,477 L458,474 L458,474 L458,472 L461,472 Z M480,472 L482,474 L491,474 L491,477 L477,477 L477,472 L480,472 Z M499,472 L501,474 L510,474 L510,477 L496,477 L496,472 L499,472 Z M518,472 L520,474 L529,474 L529,477 L515,477 L515,474 L515,474 L515,472 L518,472 Z M534,472 L537,472 L539,474 L548,474 L548,477 L534,477 L534,472 Z" id="形状结合" fill-opacity="0.15" fill="#FE615A"></path>
                    <text id="010010000011" opacity="0.1" font-family="PingFangSC-Medium, PingFang SC" font-size="12" font-weight="400" fill="#FE615A">
                        <tspan x="1630.408" y="144">010010000011</tspan>
                    </text>
                    <text id="00010010100001" opacity="0.1" font-family="PingFangSC-Medium, PingFang SC" font-size="12" font-weight="400" fill="#FE615A">
                        <tspan x="500.708" y="1063">00010010100001</tspan>
                    </text>
                </g>
                <g id="编组-6" transform="translate(0.000000, 14.000000)" stroke="#FE615A">
                    <polyline id="路径-60" opacity="0.3" points="0 1.13686838e-13 750.562473 1.13686838e-13 725.5 44.4119005"></polyline>
                    <line x1="763.798144" y1="-9.23705556e-14" x2="738.623712" y2="44.4119005" id="路径-61" stroke-width="3" opacity="0.3"></line>
                    <line x1="777.701944" y1="-1.13686838e-13" x2="751.562473" y2="45" id="路径-61备份" stroke-width="7" opacity="0.3"></line>
                    <line x1="728.4375" y1="10.237649" x2="28" y2="10.237649" id="路径-68" stroke-width="2" opacity="0.15" stroke-dasharray="3"></line>
                </g>
                <g id="编组-6" transform="translate(1531.000000, 36.500000) scale(-1, 1) translate(-1531.000000, -36.500000) translate(1142.000000, 14.000000)" stroke="#FE615A">
                    <polyline id="路径-60" opacity="0.3" points="0 1.13686838e-13 750.562473 1.13686838e-13 725.5 44.4119005"></polyline>
                    <line x1="763.798144" y1="-9.23705556e-14" x2="738.623712" y2="44.4119005" id="路径-61" stroke-width="3" opacity="0.3"></line>
                    <line x1="777.701944" y1="-1.13686838e-13" x2="751.562473" y2="45" id="路径-61备份" stroke-width="7" opacity="0.3"></line>
                    <line x1="728.4375" y1="10.237649" x2="28" y2="10.237649" id="路径-68" stroke-width="2" opacity="0.15" stroke-dasharray="3"></line>
                </g>
                <g id="编组-4" opacity="0.598400298" transform="translate(590.000000, 126.000000)" fill="#FE615A">
                    <text id="00010010100001备份" opacity="0.1" font-family="PingFangSC-Medium, PingFang SC" font-size="12" font-weight="400">
                        <tspan x="640.208" y="376">00010010100001</tspan>
                    </text>
                    <ellipse id="椭圆形" stroke-opacity="0.3" stroke="#FE615A" fill-opacity="0.109238418" opacity="0.14734468" cx="363" cy="370" rx="363" ry="370"></ellipse>
                    <ellipse id="椭圆形" stroke-opacity="0.3" stroke="#FE615A" fill-opacity="0.109238418" opacity="0.303176153" cx="363" cy="370" rx="266" ry="271"></ellipse>
                    <ellipse id="椭圆形" fill-opacity="0.049238" cx="363" cy="369.5" rx="170" ry="173.5"></ellipse>
                </g>
            </g>
        </g>
    </g>
</svg>