<?xml version="1.0" standalone="no"?><!DOCTYPE svg PUBLIC "-//W3C//DTD SVG 1.1//EN" "http://www.w3.org/Graphics/SVG/1.1/DTD/svg11.dtd"><svg t="1636687871019" class="icon" viewBox="0 0 1024 1024" version="1.1" xmlns="http://www.w3.org/2000/svg" p-id="1959" xmlns:xlink="http://www.w3.org/1999/xlink" width="30" height="30"><defs><style type="text/css"></style></defs><path d="M682.666667 204.8m0 68.266667l0 0q0 68.266667-68.266667 68.266666l-273.066667 0q-68.266667 0-68.266666-68.266666l0 0q0-68.266667 68.266666-68.266667l273.066667 0q68.266667 0 68.266667 68.266667Z" fill="#eca157" p-id="1960"></path><path d="M68.266667 102.4m68.266666 0l0 0q68.266667 0 68.266667 68.266667l0 682.666666q0 68.266667-68.266667 68.266667l0 0q-68.266667 0-68.266666-68.266667l0-682.666666q0-68.266667 68.266666-68.266667Z" fill="#eca157" fill-opacity=".5" p-id="1961"></path><path d="M1024 682.666667m0 68.266666l0 0q0 68.266667-68.266667 68.266667l-614.4 0q-68.266667 0-68.266666-68.266667l0 0q0-68.266667 68.266666-68.266666l614.4 0q68.266667 0 68.266667 68.266666Z" fill="#eca157" p-id="1962"></path><path d="M921.6 443.733333m0 68.266667l0 0q0 68.266667-68.266667 68.266667l-512 0q-68.266667 0-68.266666-68.266667l0 0q0-68.266667 68.266666-68.266667l512 0q68.266667 0 68.266667 68.266667Z" fill="#eca157" p-id="1963"></path></svg>