<?xml version="1.0" encoding="UTF-8"?>
<svg width="30px" height="30px" viewBox="0 0 30 30" version="1.1" xmlns="http://www.w3.org/2000/svg" xmlns:xlink="http://www.w3.org/1999/xlink">
    <title>icon-在营上线官网数</title>
    <g id="页面-1" stroke="none" stroke-width="1" fill="none" fill-rule="evenodd">
        <g id="211012-东呈大屏-1屏" transform="translate(-1422.000000, -318.000000)" fill="#6BD5C8">
            <g id="icon-在营上线官网数-2" transform="translate(1422.000000, 318.000000)">
                <g id="icon-在营上线官网数" transform="translate(4.000000, 3.000000)">
                    <path d="M20,0 C21.1045695,-2.02906125e-16 22,0.8954305 22,2 L22,16 C22,17.1045695 21.1045695,18 20,18 L2,18 C0.8954305,18 1.3527075e-16,17.1045695 0,16 L0,2 C-1.3527075e-16,0.8954305 0.8954305,2.02906125e-16 2,0 L20,0 Z M19.1044111,5.96975422 C18.5241094,5.37853396 17.5744031,5.36968276 16.9831829,5.9499845 L16.9831829,5.9499845 L13.087,9.773 L10.0958019,6.07672 L9.99177875,5.96081182 C9.412411,5.37831744 8.45528281,5.36751626 7.86364383,5.96545619 L7.86364383,5.96545619 L2.9366003,10.9449727 L2.83423489,11.0594389 C2.35683431,11.6511366 2.39576043,12.5200051 2.94783634,13.0662633 L2.94783634,13.0662633 L3.06230255,13.1686287 C3.65400025,13.6460293 4.52286866,13.6071032 5.06912692,13.0550273 L5.06912692,13.0550273 L8.818,9.266 L11.7948101,12.9437635 L11.8977884,13.0586121 C12.4712197,13.6362021 13.4169984,13.6539568 14.0114341,13.070499 L14.0114341,13.070499 L19.0846414,8.09098243 L19.1886689,7.97802461 C19.6746667,7.39336775 19.648444,6.5240232 19.1044111,5.96975422 Z" id="形状结合"></path>
                    <rect id="矩形" fill-opacity="0.5" x="0" y="20" width="22" height="4" rx="2"></rect>
                </g>
            </g>
        </g>
    </g>
</svg>