<?xml version="1.0" standalone="no"?><!DOCTYPE svg PUBLIC "-//W3C//DTD SVG 1.1//EN" "http://www.w3.org/Graphics/SVG/1.1/DTD/svg11.dtd"><svg t="1636688105935" class="icon" viewBox="0 0 1024 1024" version="1.1" xmlns="http://www.w3.org/2000/svg" p-id="1435" xmlns:xlink="http://www.w3.org/1999/xlink" width="30" height="30"><defs><style type="text/css"></style></defs><path d="M800 52a96 96 0 0 1 96 96v771.168a48 48 0 0 1-75.744 39.168l-280.512-198.72a48 48 0 0 0-55.488 0l-280.512 198.72A48 48 0 0 1 128 919.168V148a96 96 0 0 1 96-96h576z m-148.608 156.672H601.28l-230.976 427.392h50.112l230.976-427.392z m8.64 194.112c-32.256 0-57.6 10.944-74.88 33.984-16.128 19.584-23.616 46.08-23.616 78.912 0 32.256 7.488 58.176 23.616 78.912 17.28 21.888 42.624 33.408 74.88 33.408s57.024-11.52 74.304-33.408c14.976-20.16 23.04-46.656 23.04-78.912 0-32.832-8.064-59.328-23.04-78.912-17.28-23.04-42.048-33.984-74.304-33.984z m0 42.048c13.824 0 23.616 7.488 29.376 23.04 4.608 11.52 6.912 27.072 6.912 47.808 0 19.584-2.304 35.136-6.336 46.656-6.336 15.552-16.128 23.616-29.952 23.616-14.4 0-24.768-7.488-30.528-22.464-4.608-11.52-6.912-27.648-6.912-47.808 0-20.736 2.304-36.864 6.912-48.384 5.76-14.976 16.128-22.464 30.528-22.464zM362.816 216.736c-32.256 0-57.6 10.944-74.88 33.984-16.128 19.584-23.616 46.08-23.616 78.912 0 32.256 7.488 58.176 23.616 78.912 17.28 21.888 42.624 33.408 74.88 33.408s57.024-11.52 74.304-33.408c14.976-20.16 23.04-46.656 23.04-78.912 0-32.832-8.064-59.328-23.04-78.912-17.28-23.04-42.048-33.984-74.304-33.984z m0 42.048c13.824 0 23.616 7.488 29.376 23.04 4.608 11.52 6.912 27.072 6.912 47.808 0 19.584-2.304 35.136-6.336 46.656-6.336 15.552-16.128 23.616-29.952 23.616-14.4 0-24.768-7.488-30.528-22.464-4.608-11.52-6.912-27.648-6.912-47.808 0-20.736 2.304-36.864 6.912-48.384 5.76-14.976 16.128-22.464 30.528-22.464z" fill="#9057ff" p-id="1436"></path></svg>