<?xml version="1.0" standalone="no"?><!DOCTYPE svg PUBLIC "-//W3C//DTD SVG 1.1//EN" "http://www.w3.org/Graphics/SVG/1.1/DTD/svg11.dtd"><svg t="1636687833626" class="icon" viewBox="0 0 1024 1024" version="1.1" xmlns="http://www.w3.org/2000/svg" p-id="1282" width="30" height="30" xmlns:xlink="http://www.w3.org/1999/xlink"><defs><style type="text/css"></style></defs><path d="M460.8 51.2a102.4 102.4 0 0 1 102.4 102.4v768H51.2V153.6a102.4 102.4 0 0 1 102.4-102.4h307.2zM256 665.6H153.6v102.4h102.4v-102.4z m204.8 0H358.4v102.4h102.4v-102.4z m-204.8-153.6H153.6v102.4h102.4v-102.4z m204.8 0H358.4v102.4h102.4v-102.4zM256 358.4H153.6v102.4h102.4V358.4z m204.8 0H358.4v102.4h102.4V358.4zM256 204.8H153.6v102.4h102.4V204.8z m204.8 0H358.4v102.4h102.4V204.8zM665.6 403.7632a102.4 102.4 0 0 1 35.9424 6.5024l204.8 76.8A102.4 102.4 0 0 1 972.8 582.9632V921.6h-409.6V506.1632a102.4 102.4 0 0 1 102.4-102.4zM665.6 563.2h-51.2v204.8h51.2v-204.8z" fill="#3CABF4" p-id="1283"></path></svg>