<?xml version="1.0" encoding="UTF-8"?>
<svg width="30px" height="30px" viewBox="0 0 30 30" version="1.1" xmlns="http://www.w3.org/2000/svg" xmlns:xlink="http://www.w3.org/1999/xlink">
    <title>icon-在营门店数</title>
    <g id="页面-1" stroke="none" stroke-width="1" fill="none" fill-rule="evenodd">
        <g id="211012-东呈大屏-1屏" transform="translate(-1422.000000, -208.000000)" fill="#FE615A" fill-rule="nonzero">
            <g id="icon-在营门店数-2" transform="translate(1422.000000, 208.000000)">
                <g id="icon-在营门店数" transform="translate(2.750000, 2.750000)">
                    <path d="M13.25,0.25 C14.3545695,0.25 15.25,1.1454305 15.25,2.25 L15.25,24.25 L2.25,24.25 C1.1454305,24.25 0.25,23.3545695 0.25,22.25 L0.25,2.25 C0.25,1.1454305 1.1454305,0.25 2.25,0.25 L13.25,0.25 Z M11.0227273,13.25 L4.47727273,13.25 L4.31073909,13.2636932 C3.71170635,13.3630181 3.25,13.9906085 3.25,14.75 C3.25,15.5784271 3.79946872,16.25 4.47727273,16.25 L4.47727273,16.25 L11.0227273,16.25 L11.1892609,16.2363068 C11.7882936,16.1369819 12.25,15.5093915 12.25,14.75 C12.25,13.9215729 11.7005313,13.25 11.0227273,13.25 L11.0227273,13.25 Z M11.0227273,6.25 L4.47727273,6.25 L4.31073909,6.26369323 C3.71170635,6.36301808 3.25,6.99060847 3.25,7.75 C3.25,8.57842712 3.79946872,9.25 4.47727273,9.25 L4.47727273,9.25 L11.0227273,9.25 L11.1892609,9.23630677 C11.7882936,9.13698192 12.25,8.50939153 12.25,7.75 C12.25,6.92157288 11.7005313,6.25 11.0227273,6.25 L11.0227273,6.25 Z" id="形状结合"></path>
                    <path d="M15.25,6.25 L24.2002978,11.0831608 C24.846949,11.4323525 25.25,12.1080617 25.25,12.8429716 L25.25,22.25 C25.25,23.3545695 24.3545695,24.25 23.25,24.25 L15.25,24.25 L15.25,24.25 L15.25,6.25 Z" id="矩形备份-589" opacity="0.497791109"></path>
                </g>
            </g>
        </g>
    </g>
</svg>